<?xml version="1.0" encoding="utf-8"?>
<!-- Generator: Adobe Illustrator 21.0.0, SVG Export Plug-In . SVG Version: 6.00 Build 0)  -->
<svg version="1.1" id="Calque_1" xmlns="http://www.w3.org/2000/svg" xmlns:xlink="http://www.w3.org/1999/xlink" x="0px" y="0px"
	 viewBox="0 0 100 100" style="enable-background:new 0 0 100 100;" xml:space="preserve">
<style type="text/css">
	.st0{fill:#4E4E4E;}
	.st1{fill:url(#SVGID_1_);}
	.st2{fill:url(#SVGID_2_);}
	.st3{fill:url(#SVGID_3_);}
	.st4{fill:url(#SVGID_4_);}
	.st5{fill:url(#SVGID_5_);}
	.st6{fill:url(#SVGID_6_);}
	.st7{fill:url(#SVGID_7_);}
	.st8{fill:url(#SVGID_8_);}
	.st9{fill:url(#SVGID_9_);}
	.st10{fill:url(#SVGID_10_);}
	.st11{fill:none;stroke:#4E4E4E;stroke-width:1.2831;stroke-linejoin:bevel;stroke-miterlimit:10;}
	.st12{fill:url(#SVGID_11_);}
	.st13{fill:url(#SVGID_12_);}
	.st14{fill:none;stroke:#4E4E4E;stroke-width:0.3208;stroke-miterlimit:10;}
	.st15{fill:url(#SVGID_13_);}
</style>
<g>
	<g>
		<path class="st0" d="M30.1,99.4L30.1,99.4c0.4,0.3,0.9,0,1.2-0.4l3.5-6.7c0.3-0.4,0-0.9-0.4-1.2l0,0c-0.4-0.3-0.9,0-1.2,0.4
			l-3.5,6.7C29.6,98.6,29.7,99.2,30.1,99.4z"/>
		<path class="st0" d="M34.3,96.6L34.3,96.6c0.4,0.3,0.9,0,1.2-0.4l3.5-6.7c0.3-0.4,0-0.9-0.4-1.2l0,0c-0.4-0.3-0.9,0-1.2,0.4
			L34,95.4C33.7,95.9,33.8,96.3,34.3,96.6z"/>
		<path class="st0" d="M38.7,99.5L38.7,99.5c0.4,0.3,0.9,0,1.2-0.4l3.5-6.7c0.3-0.4,0-0.9-0.4-1.2l0,0c-0.4-0.3-0.9,0-1.2,0.4
			l-3.5,6.7C38.2,98.9,38.3,99.4,38.7,99.5z"/>
		
			<linearGradient id="SVGID_1_" gradientUnits="userSpaceOnUse" x1="13.8991" y1="144.0866" x2="16.02" y2="144.0866" gradientTransform="matrix(0.8861 0.4635 0.3612 -0.6905 -22.6269 185.3268)">
			<stop  offset="0" style="stop-color:#FFFFFF"/>
			<stop  offset="0" style="stop-color:#C73279"/>
			<stop  offset="1" style="stop-color:#CE5C37"/>
		</linearGradient>
		<path class="st1" d="M39.1,99.5L39.1,99.5c0.4,0.3,0.9,0,1.2-0.4l6.3-12.1c0.3-0.4,0-0.9-0.4-1.2l0,0c-0.4-0.3-0.9,0-1.2,0.4
			l-6.3,12.1C38.5,98.9,38.7,99.4,39.1,99.5z"/>
		
			<linearGradient id="SVGID_2_" gradientUnits="userSpaceOnUse" x1="6.3029" y1="138.8979" x2="8.2938" y2="138.8979" gradientTransform="matrix(0.8861 0.4635 0.3612 -0.6905 -22.6269 185.3268)">
			<stop  offset="0" style="stop-color:#FFFFFF"/>
			<stop  offset="0" style="stop-color:#C73279"/>
			<stop  offset="1" style="stop-color:#CE5C37"/>
		</linearGradient>
		<path class="st2" d="M30.4,99.5L30.4,99.5c0.4,0.3,0.9,0,1.2-0.4l6.3-12.1c0.3-0.4,0-0.9-0.4-1.2l0,0c-0.4-0.3-0.9,0-1.2,0.4
			L30,98.4C29.9,98.9,30,99.4,30.4,99.5z"/>
		
			<linearGradient id="SVGID_3_" gradientUnits="userSpaceOnUse" x1="8.6355" y1="151.262" x2="10.8" y2="151.262" gradientTransform="matrix(0.8861 0.4635 0.3243 -0.6199 -19.8948 180.0937)">
			<stop  offset="0" style="stop-color:#FFFFFF"/>
			<stop  offset="0" style="stop-color:#C73279"/>
			<stop  offset="1" style="stop-color:#CE5C37"/>
		</linearGradient>
		<path class="st3" d="M34.5,96.8L34.5,96.8c0.4,0.3,0.9,0,1.2-0.4l5.5-10.6c0.3-0.4,0-0.9-0.4-1.2l0,0c-0.4-0.3-0.9,0-1.2,0.4
			l-5.5,10.6C34,96.1,34.1,96.6,34.5,96.8z"/>
		<g>
			<path class="st0" d="M37.7,95.9L37.7,95.9c0.4,0.3,0.9,0,1.2-0.4l3.5-6.7c0.3-0.4,0-0.9-0.4-1.2l0,0c-0.4-0.3-0.9,0-1.2,0.4
				l-3.5,6.7C37,95.2,37.3,95.7,37.7,95.9z"/>
			
				<linearGradient id="SVGID_4_" gradientUnits="userSpaceOnUse" x1="11.1952" y1="461.799" x2="13.0572" y2="461.799" gradientTransform="matrix(0.8861 0.4635 7.376809e-02 -0.141 -6.2388 153.9938)">
				<stop  offset="0" style="stop-color:#FFFFFF"/>
				<stop  offset="0" style="stop-color:#C73279"/>
				<stop  offset="1" style="stop-color:#CE5C37"/>
			</linearGradient>
			<path class="st4" d="M37.9,95.9L37.9,95.9c0.4,0.3,0.9,0,1.2-0.4l0.6-1.3c0.3-0.4,0-0.9-0.4-1.2l0,0c-0.4-0.3-0.9,0-1.2,0.4
				l-0.6,1.3C37.3,95.3,37.6,95.8,37.9,95.9z"/>
		</g>
		<g>
			<path class="st0" d="M35.5,99.8L35.5,99.8c0.4,0.3,0.9,0,1.2-0.4l0.6-1.3c0.3-0.4,0-0.9-0.4-1.2l0,0c-0.4-0.3-0.9,0-1.2,0.4
				l-0.6,1.3C35,99,35.1,99.5,35.5,99.8z"/>
			
				<linearGradient id="SVGID_5_" gradientUnits="userSpaceOnUse" x1="11.0671" y1="434.0261" x2="12.929" y2="434.0261" gradientTransform="matrix(0.8861 0.4635 7.376809e-02 -0.141 -6.2388 153.9938)">
				<stop  offset="0" style="stop-color:#FFFFFF"/>
				<stop  offset="0" style="stop-color:#C73279"/>
				<stop  offset="1" style="stop-color:#CE5C37"/>
			</linearGradient>
			<path class="st5" d="M35.8,99.8L35.8,99.8c0.4,0.3,0.9,0,1.2-0.4l0.6-1.3c0.3-0.4,0-0.9-0.4-1.2l0,0c-0.4-0.3-0.9,0-1.2,0.4
				l-0.6,1.3C35.2,99.2,35.4,99.5,35.8,99.8z"/>
		</g>
	</g>
	<g>
		<path class="st0" d="M73.6,3.6L73.6,3.6c0.4,0.3,0.9,0,1.2-0.4L75,2.7c0.3-0.4,0-0.9-0.4-1.2l0,0c-0.4-0.3-0.9,0-1.2,0.4l-0.3,0.5
			C73.1,2.8,73.2,3.3,73.6,3.6z"/>
		<path class="st0" d="M69,12.4L69,12.4c0.4,0.3,0.9,0,1.2-0.4l3.5-6.7c0.3-0.4,0-0.9-0.4-1.2l0,0c-0.4-0.3-0.9,0-1.2,0.4l-3.5,6.7
			C68.3,11.8,68.5,12.3,69,12.4z"/>
		<path class="st0" d="M68.1,8.8L68.1,8.8c0.4,0.3,0.9,0,1.2-0.4l3.5-6.7c0.3-0.4,0-0.9-0.4-1.2l0,0c-0.4-0.3-0.9,0-1.2,0.4
			l-3.5,6.7C67.6,8.2,67.7,8.6,68.1,8.8z"/>
		<path class="st0" d="M63.6,12L63.6,12c0.4,0.3,0.9,0,1.2-0.4L68.2,5c0.3-0.4,0-0.9-0.4-1.2l0,0c-0.4-0.3-0.9,0-1.2,0.4l-3.5,6.7
			C63.1,11.3,63.2,11.8,63.6,12z"/>
		<path class="st0" d="M71.6,12.4L71.6,12.4c0.4,0.3,0.9,0,1.2-0.4l5.5-10.6c0.3-0.4,0-0.9-0.4-1.2l0,0c-0.4-0.3-0.9,0-1.2,0.4
			l-5.5,10.6C71,11.8,71.2,12.3,71.6,12.4z"/>
		
			<linearGradient id="SVGID_6_" gradientUnits="userSpaceOnUse" x1="-0.3666" y1="256.8665" x2="1.622" y2="256.8665" gradientTransform="matrix(0.8861 0.4635 0.3766 -0.72 -28.0992 195.7983)">
			<stop  offset="0" style="stop-color:#FFFFFF"/>
			<stop  offset="0" style="stop-color:#C73279"/>
			<stop  offset="1" style="stop-color:#CE5C37"/>
		</linearGradient>
		<path class="st6" d="M65.5,18.2L65.5,18.2c0.4,0.3,0.9,0,1.2-0.4l6.5-12.6c0.3-0.4,0-0.9-0.4-1.2l0,0c-0.4-0.3-0.9,0-1.2,0.4
			L65.1,17C65,17.6,65.1,18.1,65.5,18.2z"/>
		
			<linearGradient id="SVGID_7_" gradientUnits="userSpaceOnUse" x1="-5.3115" y1="223.9129" x2="-3.4023" y2="223.9129" gradientTransform="matrix(0.8861 0.4635 0.308 -0.5888 -0.6328 143.2814)">
			<stop  offset="0" style="stop-color:#FFFFFF"/>
			<stop  offset="0" style="stop-color:#C73279"/>
			<stop  offset="1" style="stop-color:#CE5C37"/>
		</linearGradient>
		<path class="st7" d="M61.5,15.2L61.5,15.2c0.4,0.3,0.9,0,1.2-0.4l5.3-10c0.3-0.4,0-0.9-0.4-1.2l0,0c-0.4-0.3-0.9,0-1.2,0.4
			l-5.1,10C61,14.5,61.2,15,61.5,15.2z"/>
		
			<linearGradient id="SVGID_8_" gradientUnits="userSpaceOnUse" x1="-0.3534" y1="-665.5949" x2="1.768" y2="-665.5949" gradientTransform="matrix(0.8861 0.4635 5.414060e-02 -0.1035 109.2917 -66.8589)">
			<stop  offset="0" style="stop-color:#FFFFFF"/>
			<stop  offset="0" style="stop-color:#C73279"/>
			<stop  offset="1" style="stop-color:#CE5C37"/>
		</linearGradient>
		<path class="st8" d="M73.4,3.4L73.4,3.4c0.4,0.3,0.9,0,1.2-0.4l0.3-0.6c0.3-0.4,0-0.9-0.4-1.2l0,0c-0.4-0.3-0.9,0-1.2,0.4L73,2.3
			C72.7,2.7,72.8,3.2,73.4,3.4z"/>
		
			<linearGradient id="SVGID_9_" gradientUnits="userSpaceOnUse" x1="2.0099" y1="282.7509" x2="4.0407" y2="282.7509" gradientTransform="matrix(0.8861 0.4635 0.3243 -0.6199 -19.8948 180.0937)">
			<stop  offset="0" style="stop-color:#FFFFFF"/>
			<stop  offset="0" style="stop-color:#C73279"/>
			<stop  offset="1" style="stop-color:#CE5C37"/>
		</linearGradient>
		<path class="st9" d="M71.3,12.3L71.3,12.3c0.4,0.3,0.9,0,1.2-0.4L78,1.3c0.3-0.4,0-0.9-0.4-1.2l0,0c-0.4-0.3-0.9,0-1.2,0.4
			l-5.5,10.6C70.8,11.7,70.9,12,71.3,12.3z"/>
		
			<linearGradient id="SVGID_10_" gradientUnits="userSpaceOnUse" x1="-2.6505" y1="256.8935" x2="-0.7823" y2="256.8935" gradientTransform="matrix(0.8861 0.4635 0.3612 -0.6905 -22.6269 185.3268)">
			<stop  offset="0" style="stop-color:#FFFFFF"/>
			<stop  offset="0" style="stop-color:#C73279"/>
			<stop  offset="1" style="stop-color:#CE5C37"/>
		</linearGradient>
		<path class="st10" d="M65.1,14L65.1,14c0.4,0.3,0.9,0,1.2-0.4l6.3-12.1c0.3-0.4,0-0.9-0.4-1.2l0,0c-0.4-0.3-0.9,0-1.2,0.4
			l-6.3,12.1C64.5,13.3,64.8,13.7,65.1,14z"/>
	</g>
	<path class="st11" d="M33.4,91.6"/>
	<g>
		
			<linearGradient id="SVGID_11_" gradientUnits="userSpaceOnUse" x1="-3.3388" y1="34.146" x2="77.0608" y2="73.6324" gradientTransform="matrix(1 0 0 -1 0 101)">
			<stop  offset="0" style="stop-color:#FFFFFF"/>
			<stop  offset="0" style="stop-color:#69AC6F"/>
			<stop  offset="0.8868" style="stop-color:#4BA2CC"/>
		</linearGradient>
		<path class="st12" d="M18.8,49.8C18.8,31,34,15.9,52.7,15.9c5.8,0,11,1.4,15.8,3.8L74.1,9c-6.4-3.3-13.7-5.3-21.4-5.3
			C27.3,3.7,6.6,24.4,6.6,49.8c0,17.7,10,33.2,24.8,40.9L37,79.9C26.3,74.1,18.8,62.8,18.8,49.8z"/>
		
			<linearGradient id="SVGID_12_" gradientUnits="userSpaceOnUse" x1="22.2359" y1="64.1569" x2="62.9496" y2="47.6387" gradientTransform="matrix(1 0 0 -1 0 101)">
			<stop  offset="0" style="stop-color:#FFFFFF"/>
			<stop  offset="0" style="stop-color:#C73279"/>
			<stop  offset="1" style="stop-color:#CE5C37"/>
		</linearGradient>
		<path class="st13" d="M66.4,23.5c-15.8-8.3-25.8,6.9-15.1,16.8c-25.5-9-38.7,20.9-11.8,35l16.9-32.7l0,0L66.4,23.5z"/>
		<line class="st14" x1="74.1" y1="9" x2="31.4" y2="90.6"/>
		
			<linearGradient id="SVGID_13_" gradientUnits="userSpaceOnUse" x1="39.7761" y1="-13.2396" x2="91.236" y2="65.6627" gradientTransform="matrix(1 0 0 -1 0 101)">
			<stop  offset="0" style="stop-color:#FFFFFF"/>
			<stop  offset="0" style="stop-color:#69AC6F"/>
			<stop  offset="1" style="stop-color:#4BA2CC"/>
		</linearGradient>
		<path class="st15" d="M53.6,53.2L47,65.8h35.5c-5.8,10.6-16.9,18-29.9,18c-4.9,0-9.4-1-13.6-2.8l-5.6,10.8
			c5.9,2.7,12.3,4.2,19.2,4.2c17.6,0,33-9.9,40.7-24.4v-5.6v-0.8V53.4H53.6V53.2z"/>
		<path class="st11" d="M53.5,53.4"/>
		<g>
			<polygon class="st0" points="53.7,53.2 53.3,53.2 53.3,53.5 53.6,53.5 			"/>
			<line class="st14" x1="53.5" y1="53.4" x2="33.4" y2="91.7"/>
		</g>
	</g>
</g>
</svg>
