<?xml version="1.0" encoding="utf-8"?>
<!-- Generator: Adobe Illustrator 21.0.0, SVG Export Plug-In . SVG Version: 6.00 Build 0)  -->
<svg version="1.1" id="Calque_1" xmlns="http://www.w3.org/2000/svg" xmlns:xlink="http://www.w3.org/1999/xlink" x="0px" y="0px"
	 viewBox="0 0 163.3 149.7" style="enable-background:new 0 0 163.3 149.7;" xml:space="preserve">
<style type="text/css">
	.st0{fill:#FFFFFF;}
	.st1{fill:#179B97;}
</style>
<path class="st0" d="M123.7,49.1c-2.2-10.5-11.6-18.4-22.7-18.4c-10.5,0-19.4,7-22.3,16.6C74.7,45.8,70.4,45,66,45
	c-13.5,0-25.2,7.6-31,18.8C20,64.1,8,76.3,8,91.3C8,106.6,20.3,119,35.6,119h84.8c19.3,0,35-15.7,35-35
	C155.4,65.8,141.5,50.8,123.7,49.1z"/>
<path class="st1" d="M99.2,82.4H89V66.6c0-3.3-2.7-6-6-6h-2.6c-3.3,0-6,2.7-6,6v15.8H64.2c-1.3,0-2,1.6-1.1,2.6l17.5,17.7
	c0.6,0.6,1.5,0.6,2.1,0L100.2,85C101.2,84,100.5,82.4,99.2,82.4z"/>
</svg>
