<svg version="1.1" id="BJC4KMrInf" xmlns="http://www.w3.org/2000/svg" xmlns:xlink="http://www.w3.org/1999/xlink" x="0px" y="0px" viewBox="0 0 163 149" style="enable-background:new 0 0 163.3 149.7;">
    <style>
        @-webkit-keyframes HkJMVFfBUnM_Animation{0%{opacity: 0;}23.33%{opacity: 0;}26.67%{opacity: 1;}70%{opacity: 1;}73.33%{opacity: 0;}100%{opacity: 0;}}@keyframes HkJMVFfBUnM_Animation{0%{opacity: 0;}23.33%{opacity: 0;}26.67%{opacity: 1;}70%{opacity: 1;}73.33%{opacity: 0;}100%{opacity: 0;}}@-webkit-keyframes SkWMVFMHI3M_Animation{0%{opacity: 0;}23.33%{opacity: 0;}26.67%{opacity: 1;}70%{opacity: 1;}73.33%{opacity: 0;}100%{opacity: 0;}}@keyframes SkWMVFMHI3M_Animation{0%{opacity: 0;}23.33%{opacity: 0;}26.67%{opacity: 1;}70%{opacity: 1;}73.33%{opacity: 0;}100%{opacity: 0;}}@-webkit-keyframes B1yxVYfrLhM_HJ-3fBU3G_Animation{13.33%{-webkit-transform: translate(0px, 0px);transform: translate(0px, 0px);}16.67%{-webkit-transform: translate(0px, -5px);transform: translate(0px, -5px);}26.67%{-webkit-transform: translate(0px, 3px);transform: translate(0px, 3px);}33.33%{-webkit-transform: translate(0px, 0px);transform: translate(0px, 0px);}60%{-webkit-transform: translate(0px, 0px);transform: translate(0px, 0px);}63.33%{-webkit-transform: translate(0px, -5px);transform: translate(0px, -5px);}73.33%{-webkit-transform: translate(0px, 3px);transform: translate(0px, 3px);}80%{-webkit-transform: translate(0px, 0px);transform: translate(0px, 0px);}0%{-webkit-transform: translate(0px, 0px);transform: translate(0px, 0px);}100%{-webkit-transform: translate(0px, 0px);transform: translate(0px, 0px);}}@keyframes B1yxVYfrLhM_HJ-3fBU3G_Animation{13.33%{-webkit-transform: translate(0px, 0px);transform: translate(0px, 0px);}16.67%{-webkit-transform: translate(0px, -5px);transform: translate(0px, -5px);}26.67%{-webkit-transform: translate(0px, 3px);transform: translate(0px, 3px);}33.33%{-webkit-transform: translate(0px, 0px);transform: translate(0px, 0px);}60%{-webkit-transform: translate(0px, 0px);transform: translate(0px, 0px);}63.33%{-webkit-transform: translate(0px, -5px);transform: translate(0px, -5px);}73.33%{-webkit-transform: translate(0px, 3px);transform: translate(0px, 3px);}80%{-webkit-transform: translate(0px, 0px);transform: translate(0px, 0px);}0%{-webkit-transform: translate(0px, 0px);transform: translate(0px, 0px);}100%{-webkit-transform: translate(0px, 0px);transform: translate(0px, 0px);}}#BJC4KMrInf *{-webkit-animation-duration: 3s;animation-duration: 3s;-webkit-animation-iteration-count: infinite;animation-iteration-count: infinite;-webkit-animation-timing-function: cubic-bezier(0, 0, 1, 1);animation-timing-function: cubic-bezier(0, 0, 1, 1);}#SJ-xVFMr8nG{fill: #BEBFBE;}#Hk7g4FfrUhf{fill: #838484;}#S1ExVFMBInM{fill: #FDFBE6;}#B1rxNYMH83G{fill: #FDFBE6;}#SkLlNtGB82z{fill: #FDFBE6;}#SkDe4tMHLnf{fill: #FDFBE6;}#B1Yl4KGSUhM{fill: #259A83;}#S15l4FGSL2f{fill: #259A83;}#ByjgVKMBUnf{fill: #259A83;}#ry2lNYGBI3M{fill: #259A83;}#rJ6eEKGBIhz{fill: #FDFBE6;}#SkRx4YfBL3z{fill: #FDFBE6;}#r1yZNtMrU2G{fill: #FDFBE6;}#SJxb4FzrInz{fill: #FDFBE6;}#Bk-WEKfS8nM{fill: #FDFBE6;}#Bkfb4KfB83M{fill: #FDFBE6;}#ByV-NFMHLnz{fill: #FDFBE6;}#BySb4tMBInz{fill: #FDFBE6;}#SyIWNYzSInG{fill: #FDFBE6;}#rywbNKMrLhz{fill: #FDFBE6;}#ryuZEtMS8nM{fill: #259A83;}#BkYbEtMrUnM{fill: #FDFBE6;}#rk9W4tfBLnz{fill: #FDFBE6;}#ByjZVFzS8nM{fill: #259A83;}#BynW4KMHInf{fill: #FDFBE6;}#HkpZ4tzB8nM{fill: #FDFBE6;}#HkA-VFzB82G{fill: #FDFBE6;}#HkJMVFfBUnM{fill: #259A83;-webkit-transform-origin: 50% 50%;transform-origin: 50% 50%;transform-box: fill-box;-webkit-animation-name: HkJMVFfBUnM_Animation;animation-name: HkJMVFfBUnM_Animation;opacity: 0;-webkit-animation-timing-function: cubic-bezier(0.42, 0, 0.58, 1);animation-timing-function: cubic-bezier(0.42, 0, 0.58, 1);}#B1eG4KzSU2M{fill: #FDFBE6;}#SkWMVFMHI3M{fill: #259A83;-webkit-animation-name: SkWMVFMHI3M_Animation;animation-name: SkWMVFMHI3M_Animation;-webkit-transform-origin: 50% 50%;transform-origin: 50% 50%;transform-box: fill-box;opacity: 0;-webkit-animation-timing-function: cubic-bezier(0.42, 0, 0.58, 1);animation-timing-function: cubic-bezier(0.42, 0, 0.58, 1);}#B1yxVYfrLhM_HJ-3fBU3G{-webkit-animation-name: B1yxVYfrLhM_HJ-3fBU3G_Animation;animation-name: B1yxVYfrLhM_HJ-3fBU3G_Animation;-webkit-transform-origin: 50% 50%;transform-origin: 50% 50%;transform-box: fill-box;-webkit-transform: translate(0px, 0px);transform: translate(0px, 0px);-webkit-animation-timing-function: cubic-bezier(0.42, 0, 0.58, 1);animation-timing-function: cubic-bezier(0.42, 0, 0.58, 1);}
    </style>
    <g id="B1yxVYfrLhM_HJ-3fBU3G" data-animator-group="true" data-animator-type="0">
        <g id="B1yxVYfrLhM">
            <g id="HJgxEtMHI3G">
                <path d="M11,41.1v80c0,5.2,4.2,9.5,9.4,9.5h122.4c5.2,0,9.4-4.3,9.4-9.5v-80H11z" id="SJ-xVFMr8nG"/>
                <g id="ByMeNKzSInf">
                    <path d="M152.2,32.9c0-5.2-4.2-9.5-9.4-9.5H20.5c-5.2,0-9.4,4.3-9.4,9.5v5.8h141.2L152.2,32.9L152.2,32.9z" id="Hk7g4FfrUhf"/>
                    <circle cx="38.5" cy="31" r="5.2" id="S1ExVFMBInM"/>
                    <circle cx="66.9" cy="31" r="5.2" id="B1rxNYMH83G"/>
                    <circle cx="95.5" cy="31" r="5.2" id="SkLlNtGB82z"/>
                    <circle cx="124.7" cy="31" r="5.2" id="SkDe4tMHLnf"/>
                    <g id="B1_lEtfSL3G">
                        <path d="M38.5,33.3L38.5,33.3c-2,0-3.6-1.6-3.6-3.6v-7.1c0-2,1.6-3.6,3.6-3.6l0,0c2,0,3.6,1.6,3.6,3.6v7.1
					C42.1,31.7,40.5,33.3,38.5,33.3z" id="B1Yl4KGSUhM"/>
                        <path d="M66.9,33.3L66.9,33.3c-2,0-3.6-1.6-3.6-3.6v-7.1c0-2,1.6-3.6,3.6-3.6l0,0c2,0,3.6,1.6,3.6,3.6v7.1
					C70.5,31.7,68.9,33.3,66.9,33.3z" id="S15l4FGSL2f"/>
                        <path d="M95.5,33.3L95.5,33.3c-2,0-3.6-1.6-3.6-3.6v-7.1c0-2,1.6-3.6,3.6-3.6l0,0c2,0,3.6,1.6,3.6,3.6v7.1
					C99.1,31.7,97.5,33.3,95.5,33.3z" id="ByjgVKMBUnf"/>
                        <path d="M124.7,33.3L124.7,33.3c-2,0-3.6-1.6-3.6-3.6v-7.1c0-2,1.6-3.6,3.6-3.6l0,0c2,0,3.6,1.6,3.6,3.6v7.1
					C128.2,31.7,126.7,33.3,124.7,33.3z" id="ry2lNYGBI3M"/>
                    </g>
                </g>
            </g>
            <circle cx="28.9" cy="60.8" r="5.7" id="rJ6eEKGBIhz"/>
            <circle cx="71.1" cy="60.8" r="5.7" id="SkRx4YfBL3z"/>
            <circle cx="92.2" cy="60.8" r="5.7" id="r1yZNtMrU2G"/>
            <circle cx="113.4" cy="60.8" r="5.7" id="SJxb4FzrInz"/>
            <circle cx="50" cy="60.8" r="5.7" id="Bk-WEKfS8nM"/>
            <circle cx="134.4" cy="60.8" r="5.7" id="Bkfb4KfB83M"/>
            <g id="SymWNtMHU3M">
                <circle cx="28.9" cy="82.2" r="5.7" id="ByV-NFMHLnz"/>
                <circle cx="50" cy="82.2" r="5.7" id="BySb4tMBInz"/>
                <circle cx="71.1" cy="82.2" r="5.7" id="SyIWNYzSInG"/>
                <circle cx="92.2" cy="82.2" r="5.7" id="rywbNKMrLhz"/>
                <circle cx="113.4" cy="82.2" r="5.7" id="ryuZEtMS8nM"/>
                <circle cx="134.4" cy="82.2" r="5.7" id="BkYbEtMrUnM"/>
            </g>
            <circle cx="28.9" cy="103.5" r="5.7" id="rk9W4tfBLnz"/>
            <circle cx="50" cy="103.5" r="5.7" id="ByjZVFzS8nM"/>
            <circle cx="71.1" cy="103.5" r="5.7" id="BynW4KMHInf"/>
            <circle cx="92.2" cy="103.5" r="5.7" id="HkpZ4tzB8nM"/>
            <circle cx="113.4" cy="103.5" r="5.7" id="HkA-VFzB82G"/>
            <circle cx="50" cy="60.8" r="5.7" id="HkJMVFfBUnM"/>
            <circle cx="134.4" cy="103.5" r="5.7" id="B1eG4KzSU2M"/>
            <circle cx="134.4" cy="103.5" r="5.7" id="SkWMVFMHI3M"/>
        </g>
    </g>
</svg>